<svg width="500" height="500" viewBox="0 0 500 500" fill="none" xmlns="http://www.w3.org/2000/svg">
<rect width="500" height="500" rx="100" fill="#960B37"/>
<path d="M177.773 233.452H161.9V300.389H178.444C188.962 300.389 194.413 294.844 194.413 284.516V279.065C194.413 271.988 192.213 267.017 186.571 264.817V264.627C191.256 262.427 193.361 258.123 193.361 251.238V248.848C193.361 238.52 188.676 233.452 177.773 233.452ZM177.104 270.268C181.885 270.268 183.894 272.181 183.894 278.396V284.23C183.894 289.201 181.981 290.828 178.444 290.828H172.418V270.268H177.104ZM177.486 243.015C181.216 243.015 182.842 245.118 182.842 249.9V253.629C182.842 258.984 180.451 260.705 176.531 260.705H172.418V243.015H177.486Z" fill="white"/>
<path d="M207.023 243.015H225.192V233.452H196.504V300.389H225.192V290.828H207.023V271.223H221.462V261.662H207.023V243.015Z" fill="white"/>
<path d="M227.284 243.015H238.281V300.389H248.799V243.015H259.797V233.452H227.284V243.015Z" fill="white"/>
<path d="M278.21 233.452H262.816L252.105 300.389H261.764L263.581 288.246H276.489L278.306 300.389H288.921L278.21 233.452ZM269.891 245.31H270.083L275.055 279.162H264.919L269.891 245.31Z" fill="white"/>
<path d="M305.644 233.452H291.013V300.389H300.193V253.055H300.384L308.034 300.389H317.979L325.056 252.386H325.247V300.389H335.192V233.452H320.561L313.484 280.978H313.294L305.644 233.452Z" fill="white"/>
<path d="M347.803 248.848C347.803 244.066 349.906 242.25 353.253 242.25C356.6 242.25 358.704 244.066 358.704 248.848V284.995C358.704 289.776 356.6 291.593 353.253 291.593C349.906 291.593 347.803 289.776 347.803 284.995V248.848ZM337.284 284.326C337.284 295.035 342.925 301.154 353.253 301.154C363.581 301.154 369.222 295.035 369.222 284.326V249.517C369.222 238.806 363.581 232.687 353.253 232.687C342.925 232.687 337.284 238.806 337.284 249.517V284.326Z" fill="white"/>
<path d="M404.018 300.389C402.966 297.903 402.87 295.513 402.87 292.262V281.934C402.87 274.953 401.149 269.981 395.891 267.782V267.59C400.576 265.39 402.776 260.993 402.776 254.106V248.848C402.776 238.52 398.09 233.452 387.187 233.452H371.314V300.389H381.833V273.136H385.466C390.248 273.136 392.351 275.432 392.351 281.647V292.166C392.351 297.617 392.734 298.668 393.309 300.389H404.018ZM386.901 243.015C390.631 243.015 392.257 245.118 392.257 249.9V256.498C392.257 261.852 389.865 263.573 385.945 263.573H381.833V243.015H386.901Z" fill="white"/>
<path d="M416.628 243.015H434.798V233.452H406.109V300.389H434.798V290.828H416.628V271.223H431.069V261.662H416.628V243.015Z" fill="white"/>
<path d="M371.296 305.701H374.304V322.11H379.254V324.846H371.296V305.701Z" fill="white"/>
<path d="M380.566 305.701H383.575V324.846H380.566V305.701Z" fill="white"/>
<path d="M392.108 319.293H392.162L394.186 305.701H398.37V324.846H395.526V311.116H395.472L393.448 324.846H390.604L388.416 311.307H388.36V324.846H385.735V305.701H389.92L392.108 319.293Z" fill="white"/>
<path d="M400.558 305.701H403.565V324.846H400.558V305.701Z" fill="white"/>
<path d="M404.879 305.701H414.177V308.437H411.032V324.846H408.024V308.437H404.879V305.701Z" fill="white"/>
<path d="M418.498 313.77H422.628V316.504H418.498V322.11H423.695V324.846H415.489V305.701H423.695V308.437H418.498V313.77Z" fill="white"/>
<path d="M425.553 305.701H430.312C433.321 305.701 434.798 307.37 434.798 310.432V320.115C434.798 323.177 433.321 324.846 430.312 324.846H425.553V305.701ZM428.563 308.437V322.11H430.257C431.214 322.11 431.789 321.619 431.789 320.25V310.295C431.789 308.929 431.214 308.437 430.257 308.437H428.563Z" fill="white"/>
<path d="M114.422 220.744V213.198L119.611 217.252V203.904L77.4965 171V184.349L82.7255 188.434V203.454L45 213.562V224.54L93.3293 211.59V196.719L103.818 204.913V228.308L151.381 244.685V233.47L114.422 220.744Z" fill="white"/>
<rect x="118.608" y="275.103" width="10.5189" height="23.9235" transform="rotate(45 118.608 275.103)" fill="white"/>
<rect x="125.607" y="290.374" width="10.5189" height="23.9235" transform="rotate(45 125.607 290.374)" fill="white"/>
<rect x="132.607" y="305.646" width="10.5189" height="23.9235" transform="rotate(45 132.607 305.646)" fill="white"/>
<path d="M108.737 295.073L95.4415 281.777L84.9729 286.184L93.2798 294.491L101.299 302.511L108.737 309.949L116.175 302.511L108.737 295.073Z" fill="white"/>
<path d="M82.7609 225.422V269.096V281.403L93.2798 276.975V222.603L82.7609 225.422Z" fill="white"/>
<path d="M440.27 242.838C440.173 242.838 440.131 242.794 440.131 242.698V234.997C440.131 234.942 440.103 234.914 440.048 234.914H437.592C437.495 234.914 437.453 234.873 437.453 234.777V233.589C437.453 233.493 437.495 233.452 437.592 233.452H444.3C444.396 233.452 444.437 233.493 444.437 233.589V234.777C444.437 234.873 444.396 234.914 444.3 234.914H441.844C441.787 234.914 441.759 234.942 441.759 234.997V242.698C441.759 242.794 441.718 242.838 441.622 242.838H440.27Z" fill="white"/>
<path d="M445.779 233.589C445.779 233.493 445.822 233.452 445.918 233.452H447.147C447.27 233.452 447.339 233.493 447.381 233.589L449.961 239.373H450.017L452.556 233.589C452.598 233.493 452.667 233.452 452.791 233.452H454.005C454.103 233.452 454.145 233.493 454.145 233.589V242.698C454.145 242.794 454.103 242.838 454.005 242.838H452.805C452.709 242.838 452.667 242.794 452.667 242.698V236.956H452.611L450.625 241.373C450.569 241.498 450.486 241.554 450.362 241.554H449.562C449.438 241.554 449.355 241.498 449.3 241.373L447.311 236.956H447.256V242.698C447.256 242.794 447.215 242.838 447.119 242.838H445.918C445.822 242.838 445.779 242.794 445.779 242.698V233.589Z" fill="white"/>
</svg>
