<svg id="Layer_1" data-name="Layer 1" xmlns="http://www.w3.org/2000/svg" viewBox="0 0 780.95 295.47"><defs><style>.cls-1{fill:#959fa8;}.cls-2{isolation:isolate;}.cls-3{fill:#a91d47;}</style></defs><path id="path4378" class="cls-1" d="M427,223.21H396.54V351.77h31.77c20.21,0,30.67-10.66,30.67-30.49V310.81c0-13.59-4.22-23.14-15.06-27.36v-.37c9-4.22,13-12.49,13-25.71v-4.59C457,232.94,448,223.21,427,223.21Zm-1.29,70.7c9.18,0,13,3.68,13,15.62v11.2c0,9.55-3.67,12.67-10.47,12.67H416.74V293.91Zm.74-52.34c7.16,0,10.28,4,10.28,13.23V262c0,10.28-4.59,13.59-12.12,13.59h-7.9v-34Z" transform="translate(-172.03 -103.26)"/><path id="path4380" class="cls-1" d="M483.2,241.57h34.9V223.21H463V351.77h55.1V333.4H483.2V295.75h27.73V277.39H483.2V241.57Z" transform="translate(-172.03 -103.26)"/><path id="path4382" class="cls-1" d="M522.11,241.57h21.13v110.2h20.2V241.57h21.12V223.21H522.11v18.36Z" transform="translate(-172.03 -103.26)"/><path id="path4384" class="cls-1" d="M619.93,223.21H590.36L569.79,351.77h18.55l3.49-23.33h24.79l3.49,23.33h20.38ZM604,246h.36l9.55,65H594.4L604,246Z" transform="translate(-172.03 -103.26)"/><path id="path4386" class="cls-1" d="M672.61,223.21h-28.1V351.77h17.63V260.86h.37l14.69,90.91h19.1l13.59-92.2h.37v92.2h19.1V223.21h-28.1l-13.59,91.27h-.37l-14.69-91.27Z" transform="translate(-172.03 -103.26)"/><path id="path4388" class="cls-1" d="M753.58,252.78c0-9.19,4-12.68,10.47-12.68s10.47,3.49,10.47,12.68V322.2c0,9.18-4,12.67-10.47,12.67s-10.47-3.49-10.47-12.67Zm-20.2,68.13c0,20.57,10.83,32.33,30.67,32.33s30.67-11.76,30.67-32.33V254.06c0-20.57-10.84-32.32-30.67-32.32s-30.67,11.75-30.67,32.32Z" transform="translate(-172.03 -103.26)"/><path id="path4390" class="cls-1" d="M861.55,351.77c-2-4.78-2.21-9.37-2.21-15.61V316.32c0-13.41-3.3-23-13.4-27.18v-.37c9-4.22,13.22-12.67,13.22-25.89v-10.1c0-19.84-9-29.57-29.94-29.57H798.74V351.77h20.2V299.42h7c9.18,0,13.22,4.41,13.22,16.35V336c0,10.47.74,12.49,1.84,15.8Zm-32.88-110.2c7.17,0,10.29,4,10.29,13.23v12.67c0,10.28-4.59,13.59-12.12,13.59h-7.9V241.57Z" transform="translate(-172.03 -103.26)"/><path id="path4392" class="cls-1" d="M885.77,241.57h34.89V223.21h-55.1V351.77h55.1V333.4H885.77V295.75H913.5V277.39H885.77V241.57Z" transform="translate(-172.03 -103.26)"/><g class="cls-2"><path class="cls-1" d="M798.7,362h5.78v31.51H814v5.26H798.7Z" transform="translate(-172.03 -103.26)"/><path class="cls-1" d="M816.51,362h5.77v36.77h-5.77Z" transform="translate(-172.03 -103.26)"/><path class="cls-1" d="M838.67,388.07h.11l3.88-26.1h8v36.77h-5.46V372.37h-.11l-3.88,26.37h-5.47l-4.2-26h-.11v26h-5V362h8Z" transform="translate(-172.03 -103.26)"/><path class="cls-1" d="M854.9,362h5.78v36.77H854.9Z" transform="translate(-172.03 -103.26)"/><path class="cls-1" d="M863.2,362h17.86v5.25h-6v31.52h-5.78V367.22h-6Z" transform="translate(-172.03 -103.26)"/><path class="cls-1" d="M889.36,377.46h7.93v5.26h-7.93v10.76h10v5.26H883.58V362h15.76v5.25h-10Z" transform="translate(-172.03 -103.26)"/><path class="cls-1" d="M902.91,362h9.14c5.77,0,8.61,3.2,8.61,9.08v18.6c0,5.88-2.84,9.09-8.61,9.09h-9.14Zm5.77,5.25v26.26h3.26c1.84,0,2.94-.94,2.94-3.57V370.79c0-2.63-1.1-3.57-2.94-3.57Z" transform="translate(-172.03 -103.26)"/></g><polygon class="cls-3" points="133.33 95.54 133.33 81.04 143.3 88.83 143.3 63.19 62.41 0 62.41 25.64 72.45 33.48 72.45 62.33 0 81.74 0 102.83 92.82 77.96 92.82 49.39 112.97 65.13 112.97 110.06 204.31 141.52 204.31 119.98 133.33 95.54"/><rect class="cls-3" x="288.28" y="243.38" width="20.2" height="45.95" transform="translate(103.71 -236.23) rotate(45)"/><rect class="cls-3" x="301.72" y="272.71" width="20.2" height="45.95" transform="translate(128.38 -237.15) rotate(45)"/><rect class="cls-3" x="315.16" y="302.04" width="20.2" height="45.95" transform="translate(153.06 -238.06) rotate(45)"/><polygon class="cls-3" points="122.41 238.29 96.88 212.75 76.77 221.22 92.72 237.17 108.13 252.58 122.41 266.86 136.7 252.58 122.41 238.29"/><polygon class="cls-3" points="72.52 104.52 72.52 188.4 72.52 212.04 92.72 203.53 92.72 99.11 72.52 104.52"/><path class="cls-1" d="M940.76,222.93a.2.2,0,0,1,.07.16v1.38a.18.18,0,0,1-.07.15.2.2,0,0,1-.15.06h-3.3a.08.08,0,0,0-.09.09v10.46a.21.21,0,0,1-.07.15.18.18,0,0,1-.15.07h-1.65a.21.21,0,0,1-.16-.07.2.2,0,0,1-.06-.15V224.77a.08.08,0,0,0-.09-.09h-3.18a.21.21,0,0,1-.21-.21v-1.38a.23.23,0,0,1,.06-.16.2.2,0,0,1,.15-.06h8.75A.2.2,0,0,1,940.76,222.93Z" transform="translate(-172.03 -103.26)"/><path class="cls-1" d="M951.1,222.87h1.66a.2.2,0,0,1,.15.06.23.23,0,0,1,.06.16v12.14a.2.2,0,0,1-.06.15.18.18,0,0,1-.15.07H951.1a.18.18,0,0,1-.15-.07.2.2,0,0,1-.06-.15v-8.57a.07.07,0,0,0,0-.07,0,0,0,0,0-.06,0l-2.24,3.46a.31.31,0,0,1-.26.14h-.82a.29.29,0,0,1-.25-.14l-2.27-3.44a0,0,0,0,0-.06,0,.07.07,0,0,0,0,.07v8.55a.2.2,0,0,1-.06.15.18.18,0,0,1-.15.07H943a.18.18,0,0,1-.15-.07.2.2,0,0,1-.06-.15V223.09a.23.23,0,0,1,.06-.16.2.2,0,0,1,.15-.06h1.66a.29.29,0,0,1,.25.14l2.93,4.44a.09.09,0,0,0,.07,0,.05.05,0,0,0,0,0l2.93-4.44A.3.3,0,0,1,951.1,222.87Z" transform="translate(-172.03 -103.26)"/></svg>